<?xml version="1.0" encoding="UTF-8" standalone="no"?>
<!DOCTYPE svg PUBLIC "-//W3C//DTD SVG 1.1//EN" "http://www.w3.org/Graphics/SVG/1.1/DTD/svg11.dtd">
<!-- Generated by Microsoft Visio, SVG Export Logo-work.svg Page-1 -->
<svg xmlns="http://www.w3.org/2000/svg" xmlns:xlink="http://www.w3.org/1999/xlink" xmlns:ev="http://www.w3.org/2001/xml-events"
		xmlns:v="http://schemas.microsoft.com/visio/2003/SVGExtensions/" width="3.08333in" height="2.89583in"
		viewBox="0 0 222 208.5" xml:space="preserve" color-interpolation-filters="sRGB" class="st10">
	<v:documentProperties v:langID="1033" v:viewMarkup="false"/>

	<style type="text/css">
	<![CDATA[
		.st1 {fill:#ffffff;stroke:#ff0000;stroke-width:3}
		.st2 {stroke:#ff0000;stroke-linecap:round;stroke-linejoin:round;stroke-width:3}
		.st3 {fill:#ffffff;stroke:#00b050;stroke-width:3}
		.st4 {fill:#ffffff;stroke:none;stroke-width:3}
		.st5 {fill:#ffffff;stroke:#7030a0;stroke-width:3}
		.st6 {fill:#ffffff;stroke:#ffc000;stroke-width:3}
		.st7 {fill:none;stroke:#ff0000;stroke-width:3}
		.st8 {fill:#ffffff;stroke:#000000;stroke-width:3}
		.st9 {stroke:#000000;stroke-linecap:round;stroke-linejoin:round;stroke-width:3}
		.st10 {fill:none;fill-rule:evenodd;font-size:12px;overflow:visible;stroke-linecap:square;stroke-miterlimit:3}
	]]>
	</style>

	<g v:mID="0" v:index="1" v:groupContext="foregroundPage">
		<title>Page-1</title>
		<v:pageProperties v:drawingScale="1" v:pageScale="1" v:drawingUnits="0" v:shadowOffsetX="9" v:shadowOffsetY="-9"/>
		<g id="group626-1" transform="translate(3,-43.5)" v:mID="626" v:groupContext="group">
			<title>Sheet.626</title>
			<g id="group627-2" v:mID="627" v:groupContext="group">
				<title>Sheet.627</title>
				<g id="shape628-3" v:mID="628" v:groupContext="shape">
					<title>Sheet.628</title>
					<path d="M162 100.5 A54 54 -180 0 0 108 46.5 A54 54 -180 0 0 54 100.5 A54 54 -180 0 0 -0 154.5 A54 54 -180 0
								 0 54 208.5 L162 208.5 A54 54 -180 0 0 216 154.5 A54 54 -180 0 0 162 100.5 Z" class="st1"/>
				</g>
				<g id="shape629-5" v:mID="629" v:groupContext="shape" transform="translate(201.346,-46.9546) rotate(44.9668)">
					<title>Sheet.629</title>
					<path d="M-0 208.5 A54.4444 53.8049 59.36 0 1 76.32 208.5" class="st2"/>
				</g>
			</g>
			<g id="shape630-8" v:mID="630" v:groupContext="shape" transform="translate(63,-63)">
				<title>Sheet.630</title>
				<path d="M83.65 152.06 L88.19 150.18 L84.96 142.38 L80.42 144.26 A40.3125 40.3125 -180 0 0 76.33 138.13 L79.8 134.66
							 L73.84 128.7 L70.37 132.17 A40.3125 40.3125 -180 0 0 64.24 128.08 L66.12 123.54 L58.32 120.31 L56.44
							 124.85 A40.3125 40.3125 -180 0 0 49.22 123.41 L49.22 118.5 L40.78 118.5 L40.78 123.41 A40.3125 40.3125
							 -180 0 0 33.56 124.85 L31.68 120.31 L23.88 123.54 L25.76 128.08 A40.3125 40.3125 -180 0 0 19.63 132.17
							 L16.16 128.7 L10.2 134.66 L13.67 138.13 A40.3125 40.3125 -180 0 0 9.58 144.26 L5.04 142.38 L1.81 150.18
							 L6.35 152.06 A40.3125 40.3125 -180 0 0 4.91 159.28 L0 159.28 L0 167.72 L4.91 167.72 A40.3125 40.3125
							 -180 0 0 6.35 174.94 L1.81 176.82 L5.04 184.62 L9.58 182.74 A40.3125 40.3125 -180 0 0 13.67 188.87 L10.2
							 192.34 L16.16 198.3 L19.63 194.83 A40.3125 40.3125 -180 0 0 25.76 198.92 L23.88 203.46 L31.68 206.69
							 L33.56 202.15 A40.3125 40.3125 -180 0 0 40.78 203.59 L40.78 208.5 L49.22 208.5 L49.22 203.59 A40.3125
							 40.3125 -180 0 0 56.44 202.15 L58.32 206.69 L66.12 203.46 L64.24 198.92 A40.3125 40.3125 -180 0 0 70.37
							 194.83 L73.84 198.3 L79.8 192.34 L76.33 188.87 A40.3125 40.3125 -180 0 0 80.42 182.74 L84.96 184.62
							 L88.19 176.82 L83.65 174.94 A40.3125 40.3125 -180 0 0 85.09 167.72 L90 167.72 L90 159.28 L85.09 159.28
							 A40.3125 40.3125 -180 0 0 83.65 152.06 Z" class="st3"/>
			</g>
			<g id="shape631-10" v:mID="631" v:groupContext="shape">
				<title>Sheet.631</title>
				<ellipse cx="54" cy="154.5" rx="54" ry="54" class="st4"/>
			</g>
			<g id="shape632-12" v:mID="632" v:groupContext="shape" transform="translate(117,-9)">
				<title>Sheet.632</title>
				<path d="M83.65 152.06 L88.19 150.18 L84.96 142.38 L80.42 144.26 A40.3125 40.3125 -180 0 0 76.33 138.13 L79.8 134.66
							 L73.84 128.7 L70.37 132.17 A40.3125 40.3125 -180 0 0 64.24 128.08 L66.12 123.54 L58.32 120.31 L56.44
							 124.85 A40.3125 40.3125 -180 0 0 49.22 123.41 L49.22 118.5 L40.78 118.5 L40.78 123.41 A40.3125 40.3125
							 -180 0 0 33.56 124.85 L31.68 120.31 L23.88 123.54 L25.76 128.08 A40.3125 40.3125 -180 0 0 19.63 132.17
							 L16.16 128.7 L10.2 134.66 L13.67 138.13 A40.3125 40.3125 -180 0 0 9.58 144.26 L5.04 142.38 L1.81 150.18
							 L6.35 152.06 A40.3125 40.3125 -180 0 0 4.91 159.28 L0 159.28 L0 167.72 L4.91 167.72 A40.3125 40.3125
							 -180 0 0 6.35 174.94 L1.81 176.82 L5.04 184.62 L9.58 182.74 A40.3125 40.3125 -180 0 0 13.67 188.87 L10.2
							 192.34 L16.16 198.3 L19.63 194.83 A40.3125 40.3125 -180 0 0 25.76 198.92 L23.88 203.46 L31.68 206.69
							 L33.56 202.15 A40.3125 40.3125 -180 0 0 40.78 203.59 L40.78 208.5 L49.22 208.5 L49.22 203.59 A40.3125
							 40.3125 -180 0 0 56.44 202.15 L58.32 206.69 L66.12 203.46 L64.24 198.92 A40.3125 40.3125 -180 0 0 70.37
							 194.83 L73.84 198.3 L79.8 192.34 L76.33 188.87 A40.3125 40.3125 -180 0 0 80.42 182.74 L84.96 184.62
							 L88.19 176.82 L83.65 174.94 A40.3125 40.3125 -180 0 0 85.09 167.72 L90 167.72 L90 159.28 L85.09 159.28
							 A40.3125 40.3125 -180 0 0 83.65 152.06 Z" class="st5"/>
			</g>
			<g id="shape633-14" v:mID="633" v:groupContext="shape" transform="translate(9,-9)">
				<title>Sheet.633</title>
				<path d="M83.65 152.06 L88.19 150.18 L84.96 142.38 L80.42 144.26 A40.3125 40.3125 -180 0 0 76.33 138.13 L79.8 134.66
							 L73.84 128.7 L70.37 132.17 A40.3125 40.3125 -180 0 0 64.24 128.08 L66.12 123.54 L58.32 120.31 L56.44
							 124.85 A40.3125 40.3125 -180 0 0 49.22 123.41 L49.22 118.5 L40.78 118.5 L40.78 123.41 A40.3125 40.3125
							 -180 0 0 33.56 124.85 L31.68 120.31 L23.88 123.54 L25.76 128.08 A40.3125 40.3125 -180 0 0 19.63 132.17
							 L16.16 128.7 L10.2 134.66 L13.67 138.13 A40.3125 40.3125 -180 0 0 9.58 144.26 L5.04 142.38 L1.81 150.18
							 L6.35 152.06 A40.3125 40.3125 -180 0 0 4.91 159.28 L0 159.28 L0 167.72 L4.91 167.72 A40.3125 40.3125
							 -180 0 0 6.35 174.94 L1.81 176.82 L5.04 184.62 L9.58 182.74 A40.3125 40.3125 -180 0 0 13.67 188.87 L10.2
							 192.34 L16.16 198.3 L19.63 194.83 A40.3125 40.3125 -180 0 0 25.76 198.92 L23.88 203.46 L31.68 206.69
							 L33.56 202.15 A40.3125 40.3125 -180 0 0 40.78 203.59 L40.78 208.5 L49.22 208.5 L49.22 203.59 A40.3125
							 40.3125 -180 0 0 56.44 202.15 L58.32 206.69 L66.12 203.46 L64.24 198.92 A40.3125 40.3125 -180 0 0 70.37
							 194.83 L73.84 198.3 L79.8 192.34 L76.33 188.87 A40.3125 40.3125 -180 0 0 80.42 182.74 L84.96 184.62
							 L88.19 176.82 L83.65 174.94 A40.3125 40.3125 -180 0 0 85.09 167.72 L90 167.72 L90 159.28 L85.09 159.28
							 A40.3125 40.3125 -180 0 0 83.65 152.06 Z" class="st6"/>
			</g>
			<g id="group634-16" v:mID="634" v:groupContext="group">
				<title>Sheet.634</title>
				<g id="shape635-17" v:mID="635" v:groupContext="shape">
					<title>Sheet.635</title>
					<path d="M162 100.5 A54 54 -180 0 0 108 46.5 A54 54 -180 0 0 54 100.5 A54 54 -180 0 0 -0 154.5 A54 54 -180 0
								 0 54 208.5 L162 208.5 A54 54 -180 0 0 216 154.5 A54 54 -180 0 0 162 100.5 Z" class="st7"/>
				</g>
				<g id="shape636-19" v:mID="636" v:groupContext="shape" transform="translate(201.346,-46.9546) rotate(44.9668)">
					<title>Sheet.636</title>
					<path d="M-0 208.5 A54.4444 53.8049 59.36 0 1 76.32 208.5" class="st2"/>
				</g>
			</g>
			<g id="shape637-22" v:mID="637" v:groupContext="shape" transform="translate(153,-45)">
				<title>Sheet.637</title>
				<ellipse cx="9" cy="199.5" rx="9" ry="9" class="st7"/>
			</g>
			<g id="shape638-24" v:mID="638" v:groupContext="shape" transform="translate(99,-99)">
				<title>Sheet.638</title>
				<ellipse cx="9" cy="199.5" rx="9" ry="9" class="st7"/>
			</g>
			<g id="shape639-26" v:mID="639" v:groupContext="shape" transform="translate(45,-45)">
				<title>Sheet.639</title>
				<ellipse cx="9" cy="199.5" rx="9" ry="9" class="st7"/>
			</g>
			<g id="group640-28" transform="translate(108,-15.75)" v:mID="640" v:groupContext="group">
				<title>Sheet.640</title>
				<g id="shape641-29" v:mID="641" v:groupContext="shape" transform="translate(208.5,174.75) rotate(90)">
					<title>Sheet.641</title>
					<path d="M0 208.5 L9 208.5" class="st2"/>
				</g>
				<g id="shape642-32" v:mID="642" v:groupContext="shape" transform="translate(208.5,190.5) rotate(90)">
					<title>Sheet.642</title>
					<path d="M0 208.5 L6.75 208.5" class="st2"/>
				</g>
				<g id="shape643-35" v:mID="643" v:groupContext="shape" transform="translate(208.5,204) rotate(90)">
					<title>Sheet.643</title>
					<path d="M0 208.5 L4.5 208.5" class="st2"/>
				</g>
			</g>
		</g>
		<g id="group675-38" transform="translate(102,-3)" v:mID="675" v:groupContext="group">
			<title>Sheet.675</title>
			<g id="shape676-39" v:mID="676" v:groupContext="shape">
				<title>Sheet.676</title>
				<path d="M18 204 A4.5 4.5 0 0 1 13.5 208.5 L4.5 208.5 A4.5 4.5 0 0 1 0 204 L0 172.5 L9 159 L18 172.5 L18 204 Z"
						class="st8"/>
			</g>
			<g id="shape677-41" v:mID="677" v:groupContext="shape" transform="translate(1.32292,-36)">
				<title>Sheet.677</title>
				<path d="M0 208.5 L15.18 208.5" class="st9"/>
			</g>
			<g id="shape678-44" v:mID="678" v:groupContext="shape" transform="translate(217.417,172.5) rotate(90)">
				<title>Sheet.678</title>
				<path d="M0 208.5 L18 208.5" class="st9"/>
			</g>
			<g id="shape679-47" v:mID="679" v:groupContext="shape" transform="translate(1.32292,-9)">
				<title>Sheet.679</title>
				<path d="M0 208.5 L15.43 208.5" class="st9"/>
			</g>
		</g>
	</g>
</svg>
